#!OML:ASF H:\Dans Jumps\Project 1\Capture day 1\Session 1\subject.ASF
:FULLY-SPECIFIED
:DEGREES
574
root 0.510352 17.6984 5.73253 5.59365 1.07159 -1.71351
lowerback -1.86248 -0.543987 -0.204016
upperback 1.69284 -0.774666 2.15364
thorax 2.81574 -0.41389 2.29557
lowerneck -15.2524 -0.228627 -2.46907
upperneck 8.06045 -0.0262227 1.91379
head 4.89649 0.039787 0.994024
rclavicle 5.96354e-016 1.07344e-014
rhumerus -21.8366 -19.3375 -82.6326
rradius 19.3959
rwrist 39.6149
rhand -20.1125 -26.3864
rfingers 7.12502
rthumb 6.2312 -56.2747
lclavicle 5.96354e-016 1.07344e-014
lhumerus -17.724 -10.768 97.3294
lradius 19.0683
lwrist 4.82357
lhand -26.7013 -6.33447
lfingers 7.12502
lthumb -0.131572 23.6452
rfemur -13.7792 -1.4474 20.7819
rtibia 21.6744
rfoot -12.2669 -3.52509
rtoes 10.6292
lfemur -14.1119 4.93098 -17.9502
ltibia 20.3141
lfoot -10.1543 3.2323
ltoes -2.42615
575
root 0.5115 17.6974 5.73718 5.58149 0.990442 -1.72971
lowerback -1.85951 -0.54206 -0.199027
upperback 1.69652 -0.772352 2.15546
thorax 2.81773 -0.412695 2.29475
lowerneck -15.2183 -0.234587 -2.46309
upperneck 7.96832 -0.0359451 1.91846
head 4.86244 0.0356097 0.993331
rclavicle -5.36719e-015 -1.86858e-014
rhumerus -21.9925 -19.4942 -82.4627
rradius 19.338
rwrist 39.7182
rhand -20.1063 -26.3757
rfingers 7.12502
rthumb 6.23723 -56.2639
lclavicle -5.36719e-015 -1.86858e-014
lhumerus -17.9329 -10.7157 97.36
lradius 18.8962
lwrist 4.60712
lhand -26.7546 -6.37263
lfingers 7.12502
lthumb -0.183115 23.607
rfemur -13.7673 -1.39351 20.7948
rtibia 21.6894
rfoot -12.2804 -3.51101
rtoes 10.5938
lfemur -14.0836 4.96199 -17.9337
ltibia 20.3435
lfoot -10.175 3.2905
ltoes -2.43345
576
root 0.512709 17.6963 5.74171 5.57008 0.911541 -1.74331
lowerback -1.85273 -0.540929 -0.19554
upperback 1.69842 -0.77097 2.1569
thorax 2.81577 -0.41196 2.29438
lowerneck -15.1874 -0.238443 -2.46103
upperneck 7.87903 -0.0423782 1.92652
head 4.82972 0.0331477 0.994633
rclavicle -1.54555e-014 2.78299e-015
rhumerus -22.1469 -19.6566 -82.2884
rradius 19.2725
rwrist 39.8311
rhand -20.0736 -26.3752
rfingers 7.12502
rthumb 6.26872 -56.2625
lclavicle -1.54555e-014 2.78299e-015
lhumerus -18.1447 -10.6213 97.3791
lradius 18.7077
lwrist 4.34712
lhand -26.7743 -6.36556
lfingers 7.12502
lthumb -0.202134 23.6141
rfemur -13.7575 -1.34075 20.8046
rtibia 21.707
rfoot -12.2946 -3.49795
rtoes 10.5616
lfemur -14.056 4.99241 -17.9207
ltibia 20.3721
lfoot -10.1962 3.34721
ltoes -2.44184
577
root 0.514354 17.6954 5.74652 5.5598 0.842162 -1.74577
lowerback -1.84705 -0.542135 -0.196974
upperback 1.69989 -0.772463 2.15467
thorax 2.81414 -0.412716 2.29287
lowerneck -15.1653 -0.24051 -2.45662
upperneck 7.79762 -0.0463735 1.93141
head 4.80085 0.0317497 0.994817
rclavicle 7.05686e-015 2.78299e-015
rhumerus -22.2975 -19.8496 -82.1036
rradius 19.1896
rwrist 39.9789
rhand -20.0752 -26.3589
rfingers 7.12502
rthumb 6.26717 -56.2462
lclavicle 7.05686e-015 2.78299e-015
lhumerus -18.3547 -10.4759 97.3849
lradius 18.5034
lwrist 4.04493
lhand -26.7509 -6.31413
lfingers 7.12502
lthumb -0.179503 23.6655
rfemur -13.7474 -1.31203 20.8007
rtibia 21.7273
rfoot -12.3135 -3.47021
rtoes 10.5375
lfemur -14.0258 5.0181 -17.9222
ltibia 20.3954
lfoot -10.2184 3.39866
ltoes -2.44006
578
root 0.516221 17.6946 5.75153 5.55504 0.772492 -1.7441
lowerback -1.85389 -0.545013 -0.198624
upperback 1.70051 -0.776255 2.15098
thorax 2.81876 -0.414637 2.28977
lowerneck -15.1363 -0.240657 -2.45513
upperneck 7.7126 -0.0474076 1.93701
head 4.76969 0.0317311 0.99592
rclavicle 8.89561e-015 -5.1684e-015
rhumerus -22.4514 -20.0138 -81.9247
rradius 19.1144
rwrist 40.1148
rhand -20.0632 -26.3667
rfingers 7.12502
rthumb 6.27883 -56.2537
lclavicle 8.89561e-015 -5.1684e-015
lhumerus -18.5652 -10.2782 97.3749
lradius 18.2795
lwrist 3.69755
lhand -26.6976 -6.22453
lfingers 7.12502
lthumb -0.128008 23.7552
rfemur -13.7427 -1.2973 20.7908
rtibia 21.7493
rfoot -12.3357 -3.4269
rtoes 10.5217
lfemur -13.9975 5.04847 -17.9308
ltibia 20.4131
lfoot -10.2399 3.44569
ltoes -2.43265
579
root 0.518258 17.694 5.75684 5.55308 0.706774 -1.73682
lowerback -1.86726 -0.549534 -0.204762
upperback 1.70298 -0.782178 2.14641
thorax 2.8291 -0.417745 2.28814
lowerneck -15.1232 -0.237534 -2.45073
upperneck 7.63747 -0.0439953 1.93937
head 4.74408 0.0338069 0.995972
rclavicle -1.18774e-014 1.03368e-014
rhumerus -22.6052 -20.1621 -81.7488
rradius 19.0501
rwrist 40.2474
rhand -20.0501 -26.3824
rfingers 7.12502
rthumb 6.29146 -56.269
lclavicle -1.18774e-014 1.03368e-014
lhumerus -18.7657 -10.0413 97.349
lradius 18.0369
lwrist 3.33203
lhand -26.6267 -6.12466
lfingers 7.12502
lthumb -0.0595053 23.8551
rfemur -13.7391 -1.29228 20.7741
rtibia 21.7713
rfoot -12.3591 -3.37733
rtoes 10.5064
lfemur -13.9687 5.07611 -17.9464
ltibia 20.4256
lfoot -10.2589 3.48944
ltoes -2.41624
580
root 0.520259 17.6935 5.76239 5.55327 0.641218 -1.73221
lowerback -1.88538 -0.553895 -0.209705
upperback 1.70696 -0.788025 2.14298
thorax 2.84369 -0.420835 2.28697
lowerneck -15.1206 -0.231789 -2.44454
upperneck 7.57033 -0.0371809 1.94102
head 4.72258 0.0375836 0.995841
rclavicle -1.15295e-014 1.15295e-014
rhumerus -22.7568 -20.3228 -81.569
rradius 18.9851
rwrist 40.3989
rhand -20.0806 -26.3629
rfingers 7.12502
rthumb 6.262 -56.2504
lclavicle -1.15295e-014 1.15295e-014
lhumerus -18.9568 -9.76515 97.3049
lradius 17.7806
lwrist 2.95156
lhand -26.5593 -6.02689
lfingers 7.12502
lthumb 0.00551468 23.9528
rfemur -13.7362 -1.28347 20.7605
rtibia 21.7912
rfoot -12.3811 -3.33086
rtoes 10.4783
lfemur -13.9417 5.10368 -17.9589
ltibia 20.4375
lfoot -10.2767 3.53343
ltoes -2.40468
581
root 0.522094 17.6929 5.76796 5.55417 0.575482 -1.73024
lowerback -1.90533 -0.557599 -0.214274
upperback 1.71293 -0.793086 2.14059
thorax 2.86132 -0.423567 2.28669
lowerneck -15.1271 -0.223971 -2.43567
upperneck 7.50889 -0.0277418 1.94064
head 4.70427 0.0426188 0.994897
rclavicle -3.13086e-015 -6.75868e-015
rhumerus -22.9116 -20.4584 -81.3957
rradius 18.9412
rwrist 40.5245
rhand -20.0802 -26.3651
rfingers 7.12502
rthumb 6.26238 -56.2525
lclavicle -3.13086e-015 -6.75868e-015
lhumerus -19.14 -9.46445 97.2439
lradius 17.5164
lwrist 2.56027
lhand -26.4794 -5.89935
lfingers 7.12502
lthumb 0.0827447 24.0804
rfemur -13.7337 -1.26377 20.7503
rtibia 21.8088
rfoot -12.4004 -3.29369
rtoes 10.455
lfemur -13.9167 5.13268 -17.9679
ltibia 20.4493
lfoot -10.291 3.57599
ltoes -2.40709
582
root 0.523758 17.6923 5.7733 5.55557 0.510299 -1.73554
lowerback -1.92335 -0.560719 -0.213171
upperback 1.72012 -0.797588 2.1397
thorax 2.87906 -0.425929 2.28478
lowerneck -15.1299 -0.219602 -2.43573
upperneck 7.45228 -0.0221348 1.94812
head 4.68695 0.0460011 0.997537
rclavicle 3.23025e-015 -2.42517e-014
rhumerus -23.0646 -20.6021 -81.2232
rradius 18.9044
rwrist 40.6512
rhand -20.1032 -26.3343
rfingers 7.12502
rthumb 6.24021 -56.2224
lclavicle 3.23025e-015 -2.42517e-014
lhumerus -19.319 -9.13592 97.1636
lradius 17.249
lwrist 2.14079
lhand -26.4376 -5.82044
lfingers 7.12502
lthumb 0.123077 24.1593
rfemur -13.7315 -1.23395 20.7488
rtibia 21.8231
rfoot -12.4155 -3.26444
rtoes 10.4374
lfemur -13.8954 5.16076 -17.9681
ltibia 20.464
lfoot -10.3037 3.62003
ltoes -2.42198
583
root 0.525373 17.6918 5.77837 5.55412 0.446246 -1.74114
lowerback -1.93206 -0.565007 -0.213774
upperback 1.72793 -0.803534 2.1396
thorax 2.89228 -0.429034 2.28467
lowerneck -15.1219 -0.216971 -2.44556
upperneck 7.39064 -0.0177496 1.96158
head 4.66638 0.048849 1.00347
rclavicle 5.86415e-015 -1.98785e-015
rhumerus -23.2128 -20.8013 -81.0375
rradius 18.855
rwrist 40.846
rhand -20.1082 -26.3134
rfingers 7.12502
rthumb 6.23534 -56.2016
lclavicle 5.86415e-015 -1.98785e-015
lhumerus -19.5004 -8.78581 97.0665
lradius 16.9901
lwrist 1.70307
lhand -26.445 -5.79331
lfingers 7.12502
lthumb 0.115922 24.1864
rfemur -13.7265 -1.19573 20.7477
rtibia 21.8346
rfoot -12.426 -3.24432
rtoes 10.4196
lfemur -13.8736 5.18587 -17.9674
ltibia 20.4807
lfoot -10.315 3.66578
ltoes -2.43168
584
root 0.526878 17.6912 5.78287 5.55392 0.387796 -1.75256
lowerback -1.93268 -0.570916 -0.20964
upperback 1.73249 -0.811729 2.14221
thorax 2.89767 -0.433132 2.28465
lowerneck -15.1023 -0.217085 -2.46258
upperneck 7.32767 -0.0160504 1.97691
head 4.6436 0.0502364 1.0109
rclavicle -1.73937e-015 -2.3059e-014
rhumerus -23.3575 -21.0107 -80.8484
rradius 18.8
rwrist 41.0476
rhand -20.1 -26.3038
rfingers 7.12502
rthumb 6.24327 -56.1918
lclavicle -1.73937e-015 -2.3059e-014
lhumerus -19.683 -8.39501 96.9514
lradius 16.7311
lwrist 1.22383
lhand -26.4571 -5.78639
lfingers 7.12502
lthumb 0.104244 24.1933
rfemur -13.7222 -1.15307 20.7535
rtibia 21.8417
rfoot -12.432 -3.23237
rtoes 10.4017
lfemur -13.8577 5.20462 -17.9595
ltibia 20.4998
lfoot -10.3248 3.71159
ltoes -2.43322
585
root 0.52841 17.6907 5.78692 5.55592 0.337812 -1.76482
lowerback -1.92651 -0.579595 -0.204542
upperback 1.73382 -0.823574 2.14657
thorax 2.89606 -0.438994 2.28581
lowerneck -15.0858 -0.216262 -2.47341
upperneck 7.26571 -0.0131928 1.9824
head 4.6216 0.0517357 1.01436
rclavicle 1.44119e-015 -1.59028e-015
rhumerus -23.4975 -21.2311 -80.6551
rradius 18.738
rwrist 41.2591
rhand -20.0787 -26.3015
rfingers 7.12502
rthumb 6.2638 -56.1889
lclavicle 1.44119e-015 -1.59028e-015
lhumerus -19.8634 -7.95359 96.8172
lradius 16.469
lwrist 0.696521
lhand -26.4644 -5.77263
lfingers 7.12502
lthumb 0.0972364 24.2071
rfemur -13.7185 -1.11685 20.7605
rtibia 21.8444
rfoot -12.4351 -3.2218
rtoes 10.3862
lfemur -13.8465 5.2173 -17.9511
ltibia 20.5188
lfoot -10.3331 3.75445
ltoes -2.42225
586
root 0.530093 17.6903 5.79082 5.56044 0.29536 -1.77947
lowerback -1.91922 -0.589923 -0.194514
upperback 1.73257 -0.83777 2.15287
thorax 2.89121 -0.445915 2.28609
lowerneck -15.0697 -0.21805 -2.47691
upperneck 7.20807 -0.0134094 1.97038
head 4.60109 0.0507804 1.01094
rclavicle -1.10822e-014 1.23246e-014
rhumerus -23.6357 -21.4257 -80.4666
rradius 18.6812
rwrist 41.4383
rhand -20.044 -26.3108
rfingers 7.12502
rthumb 6.29736 -56.1972
lclavicle -1.10822e-014 1.23246e-014
lhumerus -20.0394 -7.47381 96.6664
lradius 16.2033
lwrist 0.135479
lhand -26.4661 -5.7586
lfingers 7.12502
lthumb 0.0955942 24.2211
rfemur -13.7136 -1.09043 20.7697
rtibia 21.842
rfoot -12.4376 -3.20929
rtoes 10.3707
lfemur -13.8389 5.22549 -17.9409
ltibia 20.5371
lfoot -10.3409 3.79436
ltoes -2.40405
